<?xml version="1.0" encoding="UTF-8" standalone="no"?>
<!-- Generator: Adobe Illustrator 12.0.1, SVG Export Plug-In . SVG Version: 6.00 Build 51448)  -->
<svg
   xmlns:dc="http://purl.org/dc/elements/1.1/"
   xmlns:cc="http://creativecommons.org/ns#"
   xmlns:rdf="http://www.w3.org/1999/02/22-rdf-syntax-ns#"
   xmlns:svg="http://www.w3.org/2000/svg"
   xmlns="http://www.w3.org/2000/svg"
   xmlns:sodipodi="http://sodipodi.sourceforge.net/DTD/sodipodi-0.dtd"
   xmlns:inkscape="http://www.inkscape.org/namespaces/inkscape"
   version="1.1"
   id="Layer_1"
   width="417.367"
   height="253.23"
   viewBox="0 0 417.367 253.23"
   style="overflow:visible;enable-background:new 0 0 417.367 253.23;"
   xml:space="preserve"
   sodipodi:version="0.32"
   inkscape:version="0.46"
   sodipodi:docname="Desoxyguanosinmonophosphat.svg"
   inkscape:output_extension="org.inkscape.output.svg.inkscape"><metadata
   id="metadata132"><rdf:RDF><cc:Work
       rdf:about=""><dc:format>image/svg+xml</dc:format><dc:type
         rdf:resource="http://purl.org/dc/dcmitype/StillImage" /></cc:Work></rdf:RDF></metadata><defs
   id="defs130"><inkscape:perspective
   sodipodi:type="inkscape:persp3d"
   inkscape:vp_x="0 : 126.615 : 1"
   inkscape:vp_y="0 : 1000 : 0"
   inkscape:vp_z="417.367 : 126.615 : 1"
   inkscape:persp3d-origin="208.6835 : 84.409999 : 1"
   id="perspective134" />
	

	
	

	
	

	

	

	

	

	
	

	

	

	

	
	

	

	
	
</defs><sodipodi:namedview
   inkscape:window-height="675"
   inkscape:window-width="661"
   inkscape:pageshadow="2"
   inkscape:pageopacity="0.0"
   guidetolerance="10.0"
   gridtolerance="10.0"
   objecttolerance="10.0"
   borderopacity="1.0"
   bordercolor="#666666"
   pagecolor="#ffffff"
   id="base"
   showgrid="false"
   inkscape:zoom="1.3034092"
   inkscape:cx="208.6835"
   inkscape:cy="126.615"
   inkscape:window-x="154"
   inkscape:window-y="154"
   inkscape:current-layer="Layer_1" />
<path
   style="fill:#231f20"
   d="M 212.65308,197.55058 L 218.21152,202.39558 L 167.19653,202.39558 L 166.38808,199.97308 L 169.14402,197.55058 L 212.65308,197.55058 z"
   id="polygon3" />
<path
   style="fill:#231f20"
   d="M 141.07153,157.69808 L 141.87808,157.50807 L 143.01902,157.84058 L 169.14402,197.55058 L 166.38808,199.97308 L 165.58152,206.43308 L 141.07153,157.69808 z"
   id="polygon5" />
<path
   style="fill:#231f20"
   d="M 238.73153,157.84058 L 239.87153,157.50807 L 240.67808,157.69808 L 218.21152,202.39558 L 212.65308,197.55058 L 238.73153,157.84058 z"
   id="polygon7" />
<path
   style="fill:#231f20"
   d="M 180.63808,137.03558 L 181.39808,138.50903 L 143.01902,157.84058 L 141.87808,157.50807 L 142.68653,156.17808 L 180.63808,137.03558 z"
   id="polygon9" />
<path
   id="path13"
   d="M 182.68723,134.02883 C 182.68723,131.31848 183.41493,129.19808 184.87033,127.66573 C 186.32573,126.13243 188.20483,125.36578 190.50668,125.36578 C 192.01433,125.36578 193.37283,125.72583 194.58313,126.44593 C 195.79343,127.16698 196.71588,128.17018 197.35143,129.45838 C 197.98698,130.74658 198.30333,132.20768 198.30333,133.83978 C 198.30333,135.49563 197.96893,136.97668 197.30107,138.28293 C 196.63323,139.58918 195.68608,140.57908 194.46058,141.25072 C 193.23508,141.92238 191.91363,142.25868 190.49528,142.25868 C 188.95818,142.25868 187.58447,141.88723 186.37418,141.14527 C 185.16387,140.40332 184.24713,139.38873 183.62298,138.10528 C 182.99883,136.82183 182.68723,135.46238 182.68723,134.02883 z M 184.91403,134.05638 C 184.91403,136.02288 185.44318,137.57233 186.50148,138.70473 C 187.55978,139.83713 188.88788,140.40238 190.48388,140.40238 C 192.11028,140.40238 193.44882,139.83048 194.50047,138.68763 C 195.55118,137.54478 196.07653,135.92313 196.07653,133.82268 C 196.07653,132.49458 195.85233,131.33463 195.40298,130.34378 C 194.95363,129.35293 194.29622,128.58437 193.43078,128.03908 C 192.56533,127.49378 191.59443,127.22113 190.51808,127.22113 C 188.98857,127.22113 187.67188,127.74648 186.56893,128.79623 C 185.46598,129.84598 184.91403,131.59968 184.91403,134.05638 z"
   style="fill:#231f20" />
<path
   style="fill:#231f20"
   d="M 199.68653,138.46058 L 200.39902,136.98808 L 239.06308,156.22558 L 239.87153,157.50807 L 238.73153,157.84058 L 199.68653,138.46058 z"
   id="polygon15" />
<path
   style="fill:#231f20"
   d="M 141.07153,120.26808 L 142.68653,119.31808 L 142.68653,156.17808 L 141.87808,157.50807 L 141.07153,157.69808 L 141.07153,120.26808 z"
   id="polygon17" />
<path
   id="path21"
   d="M 158.55628,238.67038 C 158.55628,235.96003 159.28397,233.83963 160.73938,232.30728 C 162.19477,230.77398 164.07388,230.00733 166.37573,230.00733 C 167.88338,230.00733 169.24188,230.36738 170.45218,231.08748 C 171.66248,231.80853 172.58493,232.81173 173.22048,234.09993 C 173.85603,235.38813 174.17238,236.84923 174.17238,238.48132 C 174.17238,240.13718 173.83798,241.61822 173.17013,242.92448 C 172.50228,244.23073 171.55513,245.22063 170.32963,245.89228 C 169.10413,246.56393 167.78268,246.90023 166.36433,246.90023 C 164.82723,246.90023 163.45353,246.52878 162.24323,245.78683 C 161.03293,245.04487 160.11618,244.03028 159.49203,242.74683 C 158.86788,241.46338 158.55628,240.10393 158.55628,238.67038 z M 160.78308,238.69888 C 160.78308,240.66538 161.31223,242.21483 162.37053,243.34723 C 163.42883,244.47962 164.75692,245.04487 166.35293,245.04487 C 167.97933,245.04487 169.31788,244.47297 170.36953,243.33013 C 171.42023,242.18728 171.94558,240.56563 171.94558,238.46518 C 171.94558,237.13708 171.72138,235.97713 171.27203,234.98628 C 170.82268,233.99543 170.16528,233.22688 169.29983,232.68158 C 168.43438,232.13628 167.46348,231.86363 166.38713,231.86363 C 164.85763,231.86363 163.54093,232.38897 162.43797,233.43873 C 161.33503,234.48847 160.78308,236.24218 160.78308,238.69888 z"
   style="fill:#231f20" /><path
   id="path23"
   d="M 177.03378,246.61808 L 177.03378,230.28948 L 179.20073,230.28948 L 179.20073,236.99932 L 187.64718,236.99932 L 187.64718,230.28948 L 189.81413,230.28948 L 189.81413,246.61808 L 187.64718,246.61808 L 187.64718,238.92878 L 179.20073,238.92878 L 179.20073,246.61808 L 177.03378,246.61808 z"
   style="fill:#231f20" />
<path
   style="fill:#231f20"
   d="M 167.19653,227.85558 L 165.58152,227.85558 L 165.58152,206.43308 L 166.38808,199.97308 L 167.19653,202.39558 L 167.19653,227.85558 z"
   id="polygon25" />
<path
   style="fill:#231f20"
   d="M 239.06308,130.95558 L 240.67808,130.95558 L 240.67808,157.69808 L 239.87153,157.50807 L 239.06308,156.22558 L 239.06308,130.95558 z"
   id="polygon27" />
<path
   style="fill:#231f20"
   d="M 118.17558,107.06308 L 118.98403,105.63808 L 142.68653,119.31808 L 141.07153,120.26808 L 118.17558,107.06308 z"
   id="polygon29" />
<path
   id="path33"
   d="M 334.56468,79.465575 L 334.56468,63.137925 L 336.78767,63.137925 L 345.34148,75.952475 L 345.34148,63.137925 L 347.42007,63.137925 L 347.42007,79.466525 L 345.19707,79.466525 L 336.64328,66.651975 L 336.64328,79.466525 L 334.56468,79.466525 L 334.56468,79.465575 z"
   style="fill:#231f20" /><path
   id="path35"
   d="M 351.13457,79.465575 L 351.13457,63.137925 L 353.30153,63.137925 L 353.30153,69.847775 L 361.74797,69.847775 L 361.74797,63.137925 L 363.91492,63.137925 L 363.91492,79.466525 L 361.74797,79.466525 L 361.74797,71.777225 L 353.30153,71.777225 L 353.30153,79.466525 L 351.13457,79.466525 L 351.13457,79.465575 z"
   style="fill:#231f20" />
<path
   id="path39"
   d="M 301.93217,136.03808 L 301.93217,119.70948 L 304.15517,119.70948 L 312.70898,132.52403 L 312.70898,119.70948 L 314.78758,119.70948 L 314.78758,136.03808 L 312.56457,136.03808 L 304.01078,123.22353 L 304.01078,136.03808 L 301.93217,136.03808 L 301.93217,136.03808 z"
   style="fill:#231f20" />
<path
   style="fill:#231f20"
   d="M 341.85308,107.68058 L 341.04652,108.15558 L 340.23807,107.68058 L 340.23807,81.555575 L 341.85308,81.555575 L 341.85308,107.68058 z"
   id="polygon41" />
<path
   style="fill:#231f20"
   d="M 318.57808,122.12058 L 317.77152,120.69558 L 340.23807,107.68058 L 341.04652,108.15558 L 341.04652,109.10558 L 318.57808,122.12058 z"
   id="polygon43" />
<path
   style="fill:#231f20"
   d="M 315.72808,117.22808 L 314.92152,115.80308 L 334.96558,104.21308 L 335.77403,105.59058 L 315.72808,117.22808 z"
   id="polygon45" />
<path
   style="fill:#231f20"
   d="M 275.63808,109.05808 L 275.73402,108.15558 L 276.54058,107.68058 L 299.00903,120.69558 L 298.20058,122.07308 L 275.63808,109.05808 z"
   id="polygon47" />
<path
   style="fill:#231f20"
   d="M 274.92557,71.058075 L 275.73402,70.488075 L 276.54058,70.915575 L 276.54058,107.68058 L 275.73402,108.15558 L 274.92557,107.58558 L 274.92557,71.058075 z"
   id="polygon49" />
<path
   style="fill:#231f20"
   d="M 280.57808,73.718073 L 282.19308,73.718073 L 282.19308,104.87808 L 280.57808,104.87808 L 280.57808,73.718073 z"
   id="rect51" />
<path
   style="fill:#231f20"
   d="M 308.41307,50.680575 L 308.41307,52.580575 L 276.54058,70.915575 L 275.73402,70.488075 L 275.63808,69.585575 L 308.41307,50.680575 z"
   id="polygon53" />
<path
   style="fill:#231f20"
   d="M 308.41307,52.580575 L 308.41307,50.680575 L 331.64058,64.123075 L 330.83402,65.500575 L 308.41307,52.580575 z"
   id="polygon55" />
<path
   id="path59"
   d="M 233.43718,128.77058 L 233.43718,112.44198 L 235.66018,112.44198 L 244.21398,125.25653 L 244.21398,112.44198 L 246.29257,112.44198 L 246.29257,128.77058 L 244.06957,128.77058 L 235.51578,115.95603 L 235.51578,128.77058 L 233.43718,128.77058 z"
   style="fill:#231f20" />
<path
   id="path63"
   d="M 233.43718,67.780575 L 233.43718,51.451975 L 235.66018,51.451975 L 244.21398,64.266525 L 244.21398,51.451975 L 246.29257,51.451975 L 246.29257,67.780575 L 244.06957,67.780575 L 235.51578,54.966025 L 235.51578,67.780575 L 233.43718,67.780575 z"
   style="fill:#231f20" />
<path
   style="fill:#231f20"
   d="M 249.51308,117.51308 L 249.03808,115.99308 L 274.92557,107.58558 L 275.73402,108.15558 L 275.63808,109.05808 L 249.51308,117.51308 z"
   id="polygon65" />
<path
   style="fill:#231f20"
   d="M 216.73808,89.298075 L 218.73403,89.298075 L 233.55308,109.67558 L 232.22403,110.62558 L 216.73808,89.298075 z"
   id="polygon67" />
<path
   style="fill:#231f20"
   d="M 231.46308,69.063075 L 232.74653,70.013075 L 218.73403,89.298075 L 216.73808,89.298075 L 231.46308,69.063075 z"
   id="polygon69" />
<path
   style="fill:#231f20"
   d="M 236.02402,72.388075 L 237.35308,73.338075 L 225.38403,89.773075 L 224.05308,88.823075 L 236.02402,72.388075 z"
   id="polygon71" />
<path
   style="fill:#231f20"
   d="M 249.03808,62.650575 L 249.51308,61.083075 L 275.63808,69.585575 L 275.73402,70.488075 L 274.92557,71.058075 L 249.03808,62.650575 z"
   id="polygon73" />
<path
   id="path77"
   d="M 300.58128,14.993825 C 300.58128,12.283475 301.30898,10.163075 302.76533,8.630725 C 304.21977,7.097425 306.09983,6.330775 308.39978,6.330775 C 309.90837,6.330775 311.26688,6.690825 312.47622,7.410925 C 313.68653,8.131975 314.60993,9.135175 315.24453,10.423375 C 315.87913,11.711575 316.19643,13.172675 316.19643,14.804775 C 316.19643,16.460625 315.86203,17.941675 315.19418,19.247925 C 314.52632,20.554175 313.57918,21.544075 312.35368,22.215725 C 311.12913,22.887375 309.80673,23.223675 308.38838,23.223675 C 306.85223,23.223675 305.47758,22.852225 304.26727,22.110275 C 303.05698,21.368325 302.14118,20.353725 301.51608,19.070275 C 300.89098,17.786825 300.58128,16.427375 300.58128,14.993825 z M 302.80808,15.021375 C 302.80808,16.987875 303.33723,18.537325 304.39648,19.669725 C 305.45383,20.801175 306.78288,21.367375 308.37793,21.367375 C 310.00528,21.367375 311.34287,20.795475 312.39547,19.652625 C 313.44522,18.509775 313.97057,16.888125 313.97057,14.787675 C 313.97057,13.459575 313.74638,12.299625 313.29703,11.308775 C 312.84767,10.317925 312.19027,9.549375 311.32482,9.004075 C 310.46033,8.458775 309.48943,8.186125 308.41213,8.186125 C 306.88358,8.186125 305.56593,8.711475 304.46393,9.761225 C 303.35908,10.811925 302.80808,12.565625 302.80808,15.021375 z"
   style="fill:#231f20" />
<path
   style="fill:#231f20"
   d="M 304.75652,25.363075 L 306.37152,25.363075 L 306.37152,53.245576 L 304.75652,53.245576 L 304.75652,25.363075 z"
   id="rect79" />
<path
   style="fill:#231f20"
   d="M 310.40902,25.363075 L 312.02403,25.363075 L 312.02403,53.245576 L 310.40902,53.245576 L 310.40902,25.363075 z"
   id="rect81" />
<path
   id="path85"
   d="M 367.33967,136.03808 L 367.33967,119.70948 L 369.56267,119.70948 L 378.11647,132.52403 L 378.11647,119.70948 L 380.19507,119.70948 L 380.19507,136.03808 L 377.97208,136.03808 L 369.41827,123.22353 L 369.41827,136.03808 L 367.33967,136.03808 L 367.33967,136.03808 z"
   style="fill:#231f20" /><path
   id="path87"
   d="M 383.90958,136.03808 L 383.90958,119.70948 L 386.07653,119.70948 L 386.07653,126.41933 L 394.52297,126.41933 L 394.52297,119.70948 L 396.68992,119.70948 L 396.68992,136.03808 L 394.52297,136.03808 L 394.52297,128.34878 L 386.07653,128.34878 L 386.07653,136.03808 L 383.90958,136.03808 z"
   style="fill:#231f20" />
<path
   id="path91"
   d="M 406.93283,138.87383 L 406.93283,140.31403 L 398.82837,140.31403 C 398.81698,139.95208 398.87493,139.60438 399.00507,139.26998 C 399.21218,138.71898 399.54278,138.17652 400.00068,137.64263 C 400.45668,137.10873 401.11312,136.49218 401.96623,135.79298 C 403.29243,134.69763 404.19208,133.83218 404.66422,133.19568 C 405.13732,132.55918 405.37482,131.95593 405.37482,131.38783 C 405.37482,130.79313 405.16012,130.29247 404.73262,129.88303 C 404.30512,129.47453 403.74748,129.27028 403.06063,129.27028 C 402.33292,129.27028 401.75248,129.48783 401.31642,129.92388 C 400.88037,130.35993 400.65998,130.96318 400.65427,131.73362 L 399.11052,131.57022 C 399.21598,130.41503 399.61498,129.53533 400.30752,128.93113 C 400.99912,128.32503 401.92728,128.02293 403.09483,128.02293 C 404.27092,128.02293 405.20288,128.34878 405.88877,129.00048 C 406.57563,129.65218 406.91857,130.45968 406.91857,131.42298 C 406.91857,131.91318 406.81787,132.39483 406.61647,132.86793 C 406.41602,133.34103 406.08163,133.83978 405.61613,134.36322 C 405.15062,134.88668 404.37733,135.60488 403.29907,136.51783 C 402.39562,137.27593 401.81422,137.78893 401.55678,138.05968 C 401.29933,138.32853 401.08558,138.60023 400.91838,138.87288 L 406.93283,138.87288 L 406.93283,138.87383 z"
   style="fill:#231f20" />
<path
   style="fill:#231f20"
   d="M 364.36902,120.69558 L 363.56153,122.12058 L 341.04652,109.10558 L 341.04652,108.15558 L 341.85308,107.68058 L 364.36902,120.69558 z"
   id="polygon93" />
<path
   id="path97"
   d="M 101.46223,102.01383 C 101.46223,99.303475 102.18993,97.183075 103.64533,95.650725 C 105.10073,94.117425 106.97983,93.350775 109.28168,93.350775 C 110.78933,93.350775 112.14783,93.710825 113.35813,94.430925 C 114.56843,95.151975 115.49088,96.155175 116.12643,97.443375 C 116.76198,98.731575 117.07833,100.19268 117.07833,101.82478 C 117.07833,103.48063 116.74393,104.96168 116.07608,106.26793 C 115.40823,107.57418 114.46108,108.56408 113.23558,109.23573 C 112.01008,109.90738 110.68863,110.24368 109.27028,110.24368 C 107.73318,110.24368 106.35948,109.87223 105.14918,109.13028 C 103.93888,108.38833 103.02213,107.37373 102.39798,106.09028 C 101.77383,104.80683 101.46223,103.44738 101.46223,102.01383 z M 103.68903,102.04138 C 103.68903,104.00788 104.21818,105.55733 105.27648,106.68973 C 106.33478,107.82213 107.66288,108.38738 109.25888,108.38738 C 110.88528,108.38738 112.22383,107.81548 113.27548,106.67263 C 114.32618,105.52978 114.85153,103.90813 114.85153,101.80768 C 114.85153,100.47958 114.62733,99.319625 114.17798,98.328775 C 113.72863,97.337925 113.07123,96.569375 112.20578,96.024075 C 111.34033,95.478775 110.36943,95.206125 109.29308,95.206125 C 107.76358,95.206125 106.44688,95.731475 105.34393,96.781225 C 104.24098,97.830975 103.68903,99.584675 103.68903,102.04138 z"
   style="fill:#231f20" />
<path
   id="path101"
   d="M 65.316625,109.96058 L 65.316625,93.631975 L 71.471675,93.631975 C 72.554675,93.631975 73.382125,93.684225 73.953075,93.787775 C 74.754875,93.921725 75.425575,94.176325 75.968025,94.551575 C 76.509525,94.926825 76.945575,95.452175 77.275225,96.127625 C 77.605825,96.804025 77.770175,97.545975 77.770175,98.356325 C 77.770175,99.745225 77.329375,100.92038 76.446825,101.88273 C 75.564275,102.84508 73.970175,103.32578 71.664525,103.32578 L 67.483575,103.32578 L 67.483575,109.96058 L 65.316625,109.96058 L 65.316625,109.96058 z M 67.484525,101.39538 L 71.698725,101.39538 C 73.091425,101.39538 74.081325,101.13603 74.666525,100.61638 C 75.251725,100.09673 75.545275,99.366175 75.545275,98.422825 C 75.545275,97.739775 75.372375,97.155525 75.028475,96.669125 C 74.683625,96.182725 74.229525,95.861625 73.666175,95.705825 C 73.302325,95.608925 72.631625,95.561425 71.654075,95.561425 L 67.484525,95.561425 L 67.484525,101.39538 L 67.484525,101.39538 z"
   style="fill:#231f20" />
<path
   style="fill:#231f20"
   d="M 79.938078,100.17557 L 99.224028,100.17557 L 99.224028,101.79058 L 79.938078,101.79058 L 79.938078,100.17557 z"
   id="rect103" />
<path
   id="path107"
   d="M 10.434175,109.96058 L 10.434175,93.631975 L 12.601125,93.631975 L 12.601125,100.34183 L 21.047575,100.34183 L 21.047575,93.631975 L 23.214525,93.631975 L 23.214525,109.96058 L 21.047575,109.96058 L 21.047575,102.27128 L 12.601125,102.27128 L 12.601125,109.96058 L 10.434175,109.96058 z"
   style="fill:#231f20" /><path
   id="path109"
   d="M 26.157625,102.01383 C 26.157625,99.303475 26.885325,97.183075 28.340725,95.650725 C 29.796125,94.117425 31.675225,93.350775 33.977075,93.350775 C 35.484725,93.350775 36.843225,93.710825 38.053525,94.430925 C 39.263825,95.151975 40.186275,96.155175 40.821825,97.443375 C 41.457375,98.731575 41.773725,100.19268 41.773725,101.82478 C 41.773725,103.48063 41.439325,104.96168 40.771475,106.26793 C 40.103625,107.57418 39.156475,108.56408 37.930975,109.23573 C 36.705475,109.90738 35.384025,110.24368 33.965675,110.24368 C 32.428575,110.24368 31.054875,109.87223 29.844575,109.13028 C 28.634275,108.38833 27.717525,107.37373 27.093375,106.09028 C 26.469225,104.80683 26.157625,103.44738 26.157625,102.01383 z M 28.384425,102.04138 C 28.384425,104.00788 28.913575,105.55733 29.971875,106.68973 C 31.030175,107.82213 32.358275,108.38738 33.954275,108.38738 C 35.580675,108.38738 36.919225,107.81548 37.970875,106.67263 C 39.021575,105.52978 39.546925,103.90813 39.546925,101.80768 C 39.546925,100.47958 39.322725,99.319625 38.873375,98.328775 C 38.424025,97.337925 37.766625,96.569375 36.901175,96.024075 C 36.035725,95.478775 35.064825,95.206125 33.988475,95.206125 C 32.458975,95.206125 31.142275,95.731475 30.039325,96.781225 C 28.936375,97.830975 28.384425,99.584675 28.384425,102.04138 z"
   style="fill:#231f20" />
<path
   style="fill:#231f20"
   d="M 43.885577,100.17557 L 63.075578,100.17557 L 63.075578,101.79058 L 43.885577,101.79058 L 43.885577,100.17557 z"
   id="rect111" />
<path
   id="path115"
   d="M 63.747225,64.345375 C 63.747225,61.635025 64.474925,59.514625 65.930325,57.982275 C 67.385725,56.448975 69.264825,55.682325 71.566675,55.682325 C 73.074325,55.682325 74.432825,56.042375 75.643125,56.762475 C 76.853425,57.483525 77.775875,58.486725 78.411425,59.774925 C 79.046975,61.063125 79.363325,62.524225 79.363325,64.156325 C 79.363325,65.812175 79.028925,67.293225 78.361075,68.599475 C 77.693225,69.905725 76.746075,70.895625 75.520575,71.567275 C 74.295075,72.238925 72.973625,72.575225 71.555275,72.575225 C 70.018175,72.575225 68.644475,72.203775 67.434175,71.461825 C 66.223875,70.719875 65.307125,69.705275 64.682975,68.421825 C 64.058825,67.138375 63.747225,65.778925 63.747225,64.345375 z M 65.973075,64.373875 C 65.973075,66.340375 66.502225,67.889825 67.560525,69.022225 C 68.618825,70.154625 69.946925,70.719875 71.542925,70.719875 C 73.169325,70.719875 74.507875,70.147975 75.559525,69.005125 C 76.610225,67.862275 77.135575,66.240625 77.135575,64.140175 C 77.135575,62.812075 76.911375,61.652125 76.462025,60.661275 C 76.012675,59.670425 75.355275,58.901875 74.489825,58.356575 C 73.624375,57.811275 72.653475,57.538625 71.577125,57.538625 C 70.047625,57.538625 68.730925,58.063975 67.627975,59.113725 C 66.525025,60.163475 65.973075,61.917175 65.973075,64.373875 z"
   style="fill:#231f20" />
<path
   style="fill:#231f20"
   d="M 67.921525,74.715576 L 69.535575,74.715576 L 69.535575,91.435577 L 67.921525,91.435577 L 67.921525,74.715576 z"
   id="rect117" />
<path
   style="fill:#231f20"
   d="M 73.574022,74.715576 L 75.188072,74.715576 L 75.188072,91.435577 L 73.574022,91.435577 L 73.574022,74.715576 z"
   id="rect119" />
<path
   id="path123"
   d="M 63.747225,139.68133 C 63.747225,136.97098 64.474925,134.85058 65.930325,133.31823 C 67.385725,131.78493 69.264825,131.01828 71.566675,131.01828 C 73.074325,131.01828 74.432825,131.37833 75.643125,132.09843 C 76.853425,132.81948 77.775875,133.82268 78.411425,135.11088 C 79.046975,136.39908 79.363325,137.86018 79.363325,139.49228 C 79.363325,141.14813 79.028925,142.62918 78.361075,143.93543 C 77.693225,145.24168 76.746075,146.23158 75.520575,146.90323 C 74.295075,147.57488 72.973625,147.91118 71.555275,147.91118 C 70.018175,147.91118 68.644475,147.53973 67.434175,146.79778 C 66.223875,146.05583 65.307125,145.04122 64.682975,143.75778 C 64.058825,142.47433 63.747225,141.11488 63.747225,139.68133 z M 65.973075,139.70888 C 65.973075,141.67538 66.502225,143.22483 67.560525,144.35722 C 68.618825,145.48963 69.946925,146.05488 71.542925,146.05488 C 73.169325,146.05488 74.507875,145.48298 75.559525,144.34013 C 76.610225,143.19728 77.135575,141.57563 77.135575,139.47518 C 77.135575,138.14708 76.911375,136.98712 76.462025,135.99628 C 76.012675,135.00543 75.355275,134.23688 74.489825,133.69158 C 73.624375,133.14628 72.653475,132.87363 71.577125,132.87363 C 70.047625,132.87363 68.730925,133.39898 67.627975,134.44872 C 66.525025,135.49848 65.973075,137.25313 65.973075,139.70888 z"
   style="fill:#231f20" /><path
   id="path125"
   d="M 82.223775,147.62808 L 82.223775,131.29948 L 84.390725,131.29948 L 84.390725,138.00933 L 92.837175,138.00933 L 92.837175,131.29948 L 95.004125,131.29948 L 95.004125,147.62808 L 92.837175,147.62808 L 92.837175,139.93877 L 84.390725,139.93877 L 84.390725,147.62808 L 82.223775,147.62808 z"
   style="fill:#231f20" />
<path
   style="fill:#231f20"
   d="M 70.724026,112.09808 L 72.338076,112.09808 L 72.338076,128.81808 L 70.724026,128.81808 L 70.724026,112.09808 z"
   id="rect127" />
</svg>