<?xml version="1.0" encoding="UTF-8"?>
<svg preserveAspectRatio="xMidYMid" viewBox="205.74 63.44 106.43 92.97" xmlns="http://www.w3.org/2000/svg" xmlns:cc="http://creativecommons.org/ns#" xmlns:dc="http://purl.org/dc/elements/1.1/" xmlns:rdf="http://www.w3.org/1999/02/22-rdf-syntax-ns#">
  <clipPath id="a">
    <rect x=".3" y=".3" width="539.4" height="719.15"/>
  </clipPath>
  <g clip-path="url(#a)">
    <path d="M266.3 120.21q0-1.604.86-2.51.863-.91 2.225-.91.892 0 1.608.428.717.426 1.09 1.19.378.76.378 1.728 0 .98-.39 1.753-.39.77-1.12 1.17-.72.39-1.56.39-.91 0-1.623-.44-.717-.44-1.086-1.2-.37-.76-.37-1.61zm.88.013q0 1.165.623 1.837.628.668 1.573.668.963 0 1.582-.676.624-.677.624-1.92 0-.787-.268-1.372-.263-.59-.778-.91-.51-.325-1.147-.325-.91 0-1.56.624-.65.62-.65 2.07z"/>
    <path d="M255.39 127.14l-.46-.11.3-.48 9.61-4.8.14.27.13.27zm18.3-4.8l.13-.27.14-.27 9.46 4.74.3.49-.46.11z" fill-rule="evenodd" shape-rendering="geometricPrecision" stroke-width="0"/>
    <path d="M259.06 153.16q0-1.604.86-2.51.863-.91 2.225-.91.892 0 1.608.428.717.426 1.09 1.19.378.76.378 1.728 0 .98-.39 1.753-.39.77-1.12 1.17-.72.39-1.56.39-.91 0-1.623-.44-.717-.44-1.086-1.2-.37-.76-.37-1.61zm.88.013q0 1.165.623 1.837.628.668 1.573.668.963 0 1.582-.676.624-.677.624-1.92 0-.787-.268-1.372-.263-.59-.778-.91-.51-.325-1.147-.325-.91 0-1.56.624-.65.62-.65 2.07zm6.41 3.127v-6.442h.852v2.645h3.35v-2.645h.852v6.442h-.853v-3.037h-3.34v3.037zm14.81-42.02v-6.442h.874l3.384 5.058v-5.058h.817v6.442h-.874l-3.38-5.063v5.063z"/>
    <path d="M284.02 127.1l-.3-.07-.3-.49v-10.65h.6z" fill-rule="evenodd" shape-rendering="geometricPrecision" stroke-width="0"/>
    <path d="M293.64 92.68v-6.442h.874l3.384 5.058v-5.058h.817v6.442h-.874l-3.38-5.063v5.063zm6.54 0v-6.442h.852v2.645h3.35v-2.645h.85v6.442h-.85v-3.037h-3.35v3.037z"/>
    <path d="M287.83 108.73l-.3-.52 8.37-4.83.6.34zm8.67-5.01l-.6-.34v-9.09h.6zm-4.03-17.07l-.3.52-8.45-4.87v-.7zm-8.75-5.05v.7l-12.17 7.02-.3-.17v-.35z" fill-rule="evenodd" shape-rendering="geometricPrecision" stroke-width="0"/>
    <path d="M270.95 89.32l.3-.17.3.17v14.06l-.6.34z" fill-rule="evenodd" shape-rendering="geometricPrecision" stroke-width="0"/>
    <path d="M273.8 90.56v11.58" stroke="#000" stroke-width=".6"/>
    <path d="M270.95 103.72l.6-.34 8.42 4.86-.3.52z" fill-rule="evenodd" shape-rendering="geometricPrecision" stroke-width="0"/>
    <path d="M305.6 111.14q0-1.604.86-2.51.863-.91 2.225-.91.892 0 1.608.428.717.426 1.09 1.19.378.76.378 1.728 0 .98-.39 1.753-.39.77-1.12 1.17-.72.39-1.56.39-.91 0-1.623-.44-.717-.44-1.086-1.2-.37-.76-.37-1.61zm.88.013q0 1.165.623 1.837.628.668 1.573.668.963 0 1.582-.676.624-.677.624-1.92 0-.787-.268-1.372-.263-.59-.778-.91-.51-.325-1.147-.325-.91 0-1.56.624-.65.62-.65 2.07z"/>
    <path d="M295.58 104.26l-.6.34 8.58 4.96.3-.52zM282.2 72.79v9.69l.6-.34v-9.35zm-55.672 23.5v4.72h.602v-4.72zm69.97 5.67v.7l8.292 4.78.3-.52z" fill-rule="evenodd" shape-rendering="geometricPrecision" stroke-width="0"/>
    <path d="M280.66 67.942q0-1.604.86-2.51.863-.91 2.225-.91.892 0 1.608.427.717.42 1.09 1.19.378.76.378 1.72 0 .98-.39 1.75-.39.773-1.12 1.173-.72.396-1.56.396-.91 0-1.623-.44-.717-.44-1.086-1.2-.37-.76-.37-1.61zm.88.013q0 1.165.623 1.837.628.668 1.573.668.963 0 1.582-.677.624-.676.624-1.92 0-.787-.268-1.37-.263-.59-.778-.91-.51-.326-1.147-.326-.91 0-1.56.624-.65.62-.65 2.08z"/>
    <path d="M284.64 82.14l.6.34v-9.69h-.6zm-29.41 44.41l-.3.48-.3.07v-14.3l.6-.34z" fill-rule="evenodd" shape-rendering="geometricPrecision" stroke-width="0"/>
    <path d="M239.38 105.81q0-1.604.86-2.51.863-.91 2.225-.91.892 0 1.608.428.717.426 1.09 1.19.378.76.378 1.728 0 .98-.39 1.753-.39.77-1.12 1.17-.72.39-1.56.39-.91 0-1.623-.44-.717-.44-1.086-1.2-.37-.76-.37-1.61zm.88.013q0 1.165.623 1.837.628.668 1.573.668.963 0 1.582-.676.624-.677.624-1.92 0-.787-.268-1.372-.263-.59-.778-.91-.51-.325-1.147-.325-.91 0-1.56.624-.65.62-.65 2.07z"/>
    <path d="M255.23 112.46l-.6.34-7.9-4.56.3-.52z" fill-rule="evenodd" shape-rendering="geometricPrecision" stroke-width="0"/>
    <path d="M225.74 108.95v-6.442h2.43q.642 0 .98.06.475.08.796.304.32.22.514.62.198.4.198.88 0 .82-.523 1.392-.523.567-1.89.567h-1.652v2.62zm.853-3.38h1.665q.827 0 1.174-.307t.347-.866q0-.404-.21-.69-.2-.29-.54-.382-.22-.057-.8-.057h-1.648z"/>
    <path d="M237.81 105.13v.6h-5.72v-.6z" fill-rule="evenodd" shape-rendering="geometricPrecision" stroke-width="0"/>
    <path d="M224.98 91.412q0-1.604.86-2.51.863-.91 2.225-.91.892 0 1.608.427.717.42 1.09 1.19.378.76.378 1.72 0 .98-.39 1.75-.39.773-1.12 1.173-.72.396-1.56.396-.91 0-1.623-.44-.717-.44-1.086-1.2-.37-.76-.37-1.61zm.88.013q0 1.165.623 1.837.628.668 1.573.668.963 0 1.582-.677.624-.676.624-1.92 0-.787-.268-1.37-.263-.59-.778-.91-.51-.326-1.147-.326-.91 0-1.56.624-.65.62-.65 2.08z"/>
    <path d="M228.97 101.01h.6v-4.72h-.6z" fill-rule="evenodd" shape-rendering="geometricPrecision" stroke-width="0"/>
    <path d="M224.98 120.21q0-1.604.86-2.51.863-.91 2.225-.91.892 0 1.608.428.717.426 1.09 1.19.378.76.378 1.728 0 .98-.39 1.753-.39.77-1.12 1.17-.72.39-1.56.39-.91 0-1.623-.44-.717-.44-1.086-1.2-.37-.76-.37-1.61zm.88.013q0 1.165.623 1.837.628.668 1.573.668.963 0 1.582-.676.624-.677.624-1.92 0-.787-.268-1.372-.263-.59-.778-.91-.51-.325-1.147-.325-.91 0-1.56.624-.65.62-.65 2.07z"/>
    <path d="M227.75 110.59h.6v4.62h-.6z" fill-rule="evenodd" shape-rendering="geometricPrecision" stroke-width="0"/>
    <path d="M210.58 105.81q0-1.604.86-2.51.863-.91 2.225-.91.892 0 1.608.428.717.426 1.09 1.19.378.76.378 1.728 0 .98-.39 1.753-.39.77-1.12 1.17-.72.39-1.56.39-.91 0-1.623-.44-.717-.44-1.086-1.2-.37-.76-.37-1.61zm.88.013q0 1.165.623 1.837.628.668 1.573.668.963 0 1.582-.676.624-.677.624-1.92 0-.787-.268-1.372-.263-.59-.778-.91-.51-.325-1.147-.325-.91 0-1.56.624-.65.62-.65 2.07z"/>
    <path d="M224.21 105.13v.6h-5.82v-.6z" fill-rule="evenodd" shape-rendering="geometricPrecision" stroke-width="0"/>
    <path d="M231.9 118.13h3.6m-29.28-14.63h3.6" stroke="#000" stroke-width=".48"/>
    <path d="M271.25 88.8v.35l-.3.17-12.32-7.11.3-.52z" fill-rule="evenodd" shape-rendering="geometricPrecision" stroke-width="0"/>
  </g>
  <path d="M254.93 127.03l-.3.07 7.2 12.78v8.33h.6v-8.82l15.26-.01 6.33-12.28-.3-.07-.46.11-7.86 10.24h-12.15l-7.86-10.24z" fill-rule="evenodd" shape-rendering="geometricPrecision" stroke-width="0"/>
</svg>