<?xml version="1.0" encoding="UTF-8" standalone="no"?>
<!-- Generator: Adobe Illustrator 12.0.1, SVG Export Plug-In . SVG Version: 6.00 Build 51448)  -->
<svg
   xmlns:dc="http://purl.org/dc/elements/1.1/"
   xmlns:cc="http://creativecommons.org/ns#"
   xmlns:rdf="http://www.w3.org/1999/02/22-rdf-syntax-ns#"
   xmlns:svg="http://www.w3.org/2000/svg"
   xmlns="http://www.w3.org/2000/svg"
   xmlns:sodipodi="http://sodipodi.sourceforge.net/DTD/sodipodi-0.dtd"
   xmlns:inkscape="http://www.inkscape.org/namespaces/inkscape"
   version="1.1"
   id="Layer_1"
   width="218.721"
   height="120.434"
   viewBox="0 0 218.721 120.434"
   style="overflow:visible;enable-background:new 0 0 218.721 120.434;"
   xml:space="preserve"
   sodipodi:version="0.32"
   inkscape:version="0.46"
   sodipodi:docname="(2S,4R)-4-Hydroxyprolin.svg"
   inkscape:output_extension="org.inkscape.output.svg.inkscape"><metadata
   id="metadata74"><rdf:RDF><cc:Work
       rdf:about=""><dc:format>image/svg+xml</dc:format><dc:type
         rdf:resource="http://purl.org/dc/dcmitype/StillImage" /></cc:Work></rdf:RDF></metadata><defs
   id="defs72"><inkscape:perspective
   sodipodi:type="inkscape:persp3d"
   inkscape:vp_x="0 : 60.216999 : 1"
   inkscape:vp_y="0 : 1000 : 0"
   inkscape:vp_z="218.72099 : 60.216999 : 1"
   inkscape:persp3d-origin="109.3605 : 40.144666 : 1"
   id="perspective76" />
	
	

	

	
	

	
	

	
</defs><sodipodi:namedview
   inkscape:window-height="675"
   inkscape:window-width="661"
   inkscape:pageshadow="2"
   inkscape:pageopacity="0.0"
   guidetolerance="10.0"
   gridtolerance="10.0"
   objecttolerance="10.0"
   borderopacity="1.0"
   bordercolor="#666666"
   pagecolor="#ffffff"
   id="base"
   showgrid="false"
   inkscape:zoom="2.487187"
   inkscape:cx="109.3605"
   inkscape:cy="60.216999"
   inkscape:window-x="88"
   inkscape:window-y="88"
   inkscape:current-layer="Layer_1" />
<path
   style="fill:#231f20"
   d="M 157.19537,47.36065 L 157.19537,49.26065 L 125.37037,67.59565 L 124.56193,67.12065 L 124.46788,66.26565 L 157.19537,47.36065 z"
   id="polygon3" />
<path
   id="path7"
   d="M 181.99513,68.15045 C 181.99513,65.4401 182.72283,63.3197 184.17917,61.78735 C 185.63362,60.25405 187.51368,59.4874 189.81458,59.4874 C 191.32317,59.4874 192.68168,59.84745 193.89103,60.56755 C 195.10133,61.2886 196.02473,62.2918 196.65932,63.58 C 197.29393,64.8682 197.61122,66.3293 197.61122,67.9614 C 197.61122,69.61725 197.27683,71.0983 196.60897,72.40455 C 195.94112,73.7108 194.99398,74.7007 193.76848,75.37235 C 192.54393,76.044 191.22153,76.3803 189.80318,76.3803 C 188.26702,76.3803 186.89238,76.00885 185.68208,75.2669 C 184.47178,74.52495 183.55598,73.51035 182.93087,72.2269 C 182.30578,70.94345 181.99513,69.584 181.99513,68.15045 z M 184.22192,68.17895 C 184.22192,70.14545 184.75107,71.6949 185.81033,72.8273 C 186.86767,73.95875 188.19673,74.52495 189.79178,74.52495 C 191.41913,74.52495 192.75672,73.95305 193.80933,72.8102 C 194.85908,71.66735 195.38442,70.0457 195.38442,67.94525 C 195.38442,66.61715 195.16022,65.4572 194.71088,64.46635 C 194.26152,63.4755 193.60413,62.70695 192.73868,62.16165 C 191.87418,61.61635 190.90328,61.3437 189.82597,61.3437 C 188.29743,61.3437 186.97977,61.86905 185.87778,62.9188 C 184.77292,63.96855 184.22192,65.72225 184.22192,68.17895 z"
   style="fill:#231f20" /><path
   id="path9"
   d="M 200.47262,76.09815 L 200.47262,59.76955 L 202.63958,59.76955 L 202.63958,66.4794 L 211.08603,66.4794 L 211.08603,59.76955 L 213.25297,59.76955 L 213.25297,76.09815 L 211.08603,76.09815 L 211.08603,68.40885 L 202.63958,68.40885 L 202.63958,76.09815 L 200.47262,76.09815 z"
   style="fill:#231f20" />
<path
   style="fill:#231f20"
   d="M 181.60943,61.46815 L 180.80288,62.84565 L 157.19537,49.26065 L 157.19537,47.36065 L 181.60943,61.46815 z"
   id="polygon11" />
<path
   id="path15"
   d="M 149.36357,11.6739 C 149.36357,8.96355 150.09128,6.84315 151.54667,5.3108 C 153.00208,3.7775 154.88023,3.01085 157.18208,3.01085 C 158.68973,3.01085 160.04918,3.3709 161.25853,4.091 C 162.46787,4.81205 163.39128,5.81525 164.02683,7.10345 C 164.66143,8.3907 164.97872,9.85275 164.97872,11.48485 C 164.97872,13.1407 164.64433,14.62175 163.97647,15.928 C 163.30767,17.23425 162.36052,18.22415 161.13598,18.8958 C 159.91047,19.56745 158.58808,19.90375 157.17068,19.90375 C 155.63357,19.90375 154.25987,19.5323 153.04958,18.79035 C 151.83927,18.0484 150.92253,17.0338 150.29837,15.75035 C 149.67517,14.46595 149.36357,13.10745 149.36357,11.6739 z M 151.59037,11.70145 C 151.59037,13.66795 152.11953,15.2174 153.17783,16.3498 C 154.23613,17.4822 155.56423,18.04745 157.16022,18.04745 C 158.78663,18.04745 160.12518,17.47555 161.17683,16.3327 C 162.22848,15.18985 162.75287,13.5682 162.75287,11.46775 C 162.75287,10.13965 162.52867,8.9797 162.07933,7.98885 C 161.62902,6.998 160.97162,6.22945 160.10712,5.68415 C 159.24263,5.13885 158.27078,4.8662 157.19442,4.8662 C 155.66493,4.8662 154.34823,5.39155 153.24528,6.4413 C 152.14232,7.49105 151.59037,9.2457 151.59037,11.70145 z"
   style="fill:#231f20" />
<path
   style="fill:#231f20"
   d="M 153.53692,21.995649 L 155.15193,21.995649 L 155.15193,49.925649 L 153.53692,49.925649 L 153.53692,21.995649 z"
   id="rect17" />
<path
   style="fill:#231f20"
   d="M 159.19037,21.995649 L 160.80537,21.995649 L 160.80537,49.925649 L 159.19037,49.925649 L 159.19037,21.995649 z"
   id="rect19" />
<path
   id="path23"
   d="M 118.08197,113.81315 L 118.08197,97.48455 L 120.30497,97.48455 L 128.85878,110.2991 L 128.85878,97.48455 L 130.93738,97.48455 L 130.93738,113.81315 L 128.71438,113.81315 L 120.16058,100.9986 L 120.16058,113.81315 L 118.08197,113.81315 z"
   style="fill:#231f20" /><path
   id="path25"
   d="M 134.65093,113.81315 L 134.65093,97.48455 L 136.81788,97.48455 L 136.81788,104.1944 L 145.26432,104.1944 L 145.26432,97.48455 L 147.43127,97.48455 L 147.43127,113.81315 L 145.26432,113.81315 L 145.26432,106.12385 L 136.81788,106.12385 L 136.81788,113.81315 L 134.65093,113.81315 z"
   style="fill:#231f20" />
<path
   style="fill:#231f20"
   d="M 125.37037,95.33565 L 123.75538,95.33565 L 123.75538,67.73815 L 124.56193,67.12065 L 125.37037,67.59565 L 125.37037,95.33565 z"
   id="polygon27" />
<path
   style="fill:#231f20"
   d="M 89.031925,56.43315 L 88.415375,54.53315 L 124.46788,66.26565 L 124.56193,67.12065 L 123.75538,67.73815 L 89.031925,56.43315 z"
   id="polygon29" />
<path
   style="fill:#231f20"
   d="M 67.561925,85.97815 L 65.519425,85.97815 L 88.415375,54.53315 L 89.031925,56.43315 L 67.561925,85.97815 z"
   id="polygon31" />
<path
   style="fill:#231f20"
   d="M 89.031925,115.52315 L 88.415375,117.42315 L 65.519425,85.97815 L 67.561925,85.97815 L 89.031925,115.52315 z"
   id="polygon33" />
<path
   style="fill:#231f20"
   d="M 114.87193,107.11565 L 115.34693,108.68315 L 88.415375,117.42315 L 89.031925,115.52315 L 114.87193,107.11565 z"
   id="polygon35" />
<path
   id="path39"
   d="M 5.468025,94.95565 L 5.468025,78.628 L 7.634975,78.628 L 7.634975,85.33785 L 16.081425,85.33785 L 16.081425,78.628 L 18.248375,78.628 L 18.248375,94.9566 L 16.081425,94.9566 L 16.081425,87.26635 L 7.634975,87.26635 L 7.634975,94.95565 L 5.468025,94.95565 L 5.468025,94.95565 z"
   style="fill:#231f20" /><path
   id="path41"
   d="M 21.191475,87.0089 C 21.191475,84.29855 21.919175,82.17815 23.374575,80.6458 C 24.829975,79.1125 26.709075,78.34585 29.010925,78.34585 C 30.518575,78.34585 31.877075,78.7059 33.087375,79.426 C 34.297675,80.14705 35.220125,81.15025 35.855675,82.43845 C 36.491225,83.72665 36.807575,85.18775 36.807575,86.81985 C 36.807575,88.4757 36.473175,89.95675 35.805325,91.263 C 35.137475,92.56925 34.190325,93.55915 32.964825,94.2308 C 31.739325,94.90245 30.417875,95.23875 28.999525,95.23875 C 27.462425,95.23875 26.088725,94.8673 24.878425,94.12535 C 23.668125,93.3834 22.751375,92.3688 22.127225,91.08535 C 21.503075,89.8019 21.191475,88.44245 21.191475,87.0089 z M 23.418275,87.03645 C 23.418275,89.00295 23.947425,90.5524 25.005725,91.6848 C 26.064025,92.8172 27.392125,93.38245 28.988125,93.38245 C 30.614525,93.38245 31.953075,92.81055 33.004725,91.6677 C 34.055425,90.52485 34.580775,88.9032 34.580775,86.80275 C 34.580775,85.47465 34.356575,84.3147 33.907225,83.32385 C 33.457875,82.333 32.800475,81.56445 31.935025,81.01915 C 31.069575,80.47385 30.098675,80.2012 29.022325,80.2012 C 27.492825,80.2012 26.176125,80.72655 25.073175,81.7763 C 23.970225,82.82605 23.418275,84.57975 23.418275,87.03645 z"
   style="fill:#231f20" />
<path
   style="fill:#231f20"
   d="M 38.872875,89.63565 L 38.872875,82.36815 L 40.486925,82.55815 L 40.486925,89.44565 L 38.872875,89.63565 z"
   id="polygon43" />
<path
   style="fill:#231f20"
   d="M 43.290375,89.11315 L 43.290375,82.89065 L 44.905375,83.08065 L 44.905375,88.92315 L 43.290375,89.11315 z"
   id="polygon45" />
<path
   style="fill:#231f20"
   d="M 47.706925,88.59065 L 47.706925,83.41315 L 49.322875,83.60315 L 49.322875,88.40065 L 47.706925,88.59065 z"
   id="polygon47" />
<path
   style="fill:#231f20"
   d="M 52.077875,88.02065 L 52.077875,83.93565 L 53.692875,84.12565 L 53.692875,87.83065 L 52.077875,88.02065 z"
   id="polygon49" />
<path
   style="fill:#231f20"
   d="M 56.494425,87.49815 L 56.494425,84.45815 L 58.110375,84.64815 L 58.110375,87.30815 L 56.494425,87.49815 z"
   id="polygon51" />
<path
   style="fill:#231f20"
   d="M 60.865375,86.97565 L 60.865375,84.98065 L 62.480375,85.17065 L 62.480375,86.78565 L 60.865375,86.97565 z"
   id="polygon53" />
<path
   id="path57"
   d="M 118.18553,38.43065 L 118.18553,22.103 L 120.35247,22.103 L 120.35247,28.81285 L 128.79892,28.81285 L 128.79892,22.103 L 130.96588,22.103 L 130.96588,38.4316 L 128.79892,38.4316 L 128.79892,30.74135 L 120.35247,30.74135 L 120.35247,38.43065 L 118.18553,38.43065 z"
   style="fill:#231f20" />
<path
   style="fill:#231f20"
   d="M 120.90538,40.56815 L 128.17193,40.56815 L 127.98287,42.18315 L 121.14288,42.18315 L 120.90538,40.56815 z"
   id="polygon59" />
<path
   style="fill:#231f20"
   d="M 121.42788,44.74815 L 127.64942,44.74815 L 127.45943,46.36315 L 121.66538,46.36315 L 121.42788,44.74815 z"
   id="polygon61" />
<path
   style="fill:#231f20"
   d="M 121.94943,48.92815 L 127.12787,48.92815 L 126.93693,50.54315 L 122.18693,50.54315 L 121.94943,48.92815 z"
   id="polygon63" />
<path
   style="fill:#231f20"
   d="M 122.47193,53.10815 L 126.60538,53.10815 L 126.41538,54.72315 L 122.70943,54.72315 L 122.47193,53.10815 z"
   id="polygon65" />
<path
   style="fill:#231f20"
   d="M 123.04288,57.28815 L 126.08288,57.28815 L 125.89288,58.90315 L 123.23287,58.90315 L 123.04288,57.28815 z"
   id="polygon67" />
<path
   style="fill:#231f20"
   d="M 123.56538,61.46815 L 125.55943,61.46815 L 125.37037,63.08315 L 123.75538,63.08315 L 123.56538,61.46815 z"
   id="polygon69" />
</svg>