<?xml version="1.0"?>

<!DOCTYPE svg PUBLIC '-//W3C//DTD SVG 1.0//EN' 'http://www.w3.org/TR/2001/REC-SVG-20010904/DTD/svg10.dtd'>
<svg fill-opacity="1" xmlns:xlink="http://www.w3.org/1999/xlink" color-rendering="auto" color-interpolation="auto" stroke="black" text-rendering="auto" stroke-linecap="square" width="425" stroke-miterlimit="10" stroke-opacity="1" shape-rendering="auto" fill="black" stroke-dasharray="none" font-weight="normal" stroke-width="1" height="395" xmlns="http://www.w3.org/2000/svg" font-family="&apos;Dialog&apos;" font-style="normal" stroke-linejoin="miter" font-size="12" stroke-dashoffset="0" image-rendering="auto">
  <!--Generated by Marvin with Batik SVG Generator
MolSource:
<?xml version="1.0" encoding="windows-1252"?><cml xmlns="http://www.chemaxon.com" xmlns:xsi="http://www.w3.org/2001/XMLSchema-instance" xsi:schemaLocation="http://www.chemaxon.com/marvin/schema/mrvSchema_14_12_01.xsd" version="ChemAxon file format v14.12.01, generated by v16.2.8.0">
<MDocument><MChemicalStruct><molecule molID="m1"><atomArray atomID="a1 a2 a3 a4 a5 a6 a7 a8 a9 a10 a11 a12" elementType="C C N C C C C C C Cl C C" formalCharge="0 0 1 0 0 0 0 0 0 -1 0 0" x2="-3.443605292068627 -3.919459358227221 -2.6736391891090054 -1.4277466886216101 -1.9036052924386102 -0.9984015378218051 -4.348794580599034 -3.6427925913257546 -1.7044857868922558 -0.972222238779068 -7.347127596040928 1.5948391786355618" y2="8.837583668428557 7.372946202118098 6.467807345215036 7.373001232142072 8.837549911166033 10.083425572148155 10.083469839765979 5.2710025645713 5.271002564571301 6.157407283782959 10.083469839765979 10.083425572148155"></atomArray><bondArray><bond id="b1" atomRefs2="a1 a2" order="1"></bond><bond id="b2" atomRefs2="a1 a5" order="1"></bond><bond id="b3" atomRefs2="a2 a3" order="1"></bond><bond id="b4" atomRefs2="a3 a4" order="1"></bond><bond id="b5" atomRefs2="a4 a5" order="1"></bond><bond id="b6" atomRefs2="a5 a6" order="1"></bond><bond id="b7" atomRefs2="a1 a7" order="1"></bond><bond id="b8" atomRefs2="a3 a8" order="1"></bond><bond id="b9" atomRefs2="a3 a9" order="1"></bond><bond id="b10" atomRefs2="a7 a11" order="1" queryType="Any"></bond><bond id="b11" atomRefs2="a6 a12" order="1" queryType="Any"></bond></bondArray></molecule></MChemicalStruct><MBracket id="o2" type="SQUARE" orientation="DOUBLE"><MPoint x="-6.31944465637207" y="11.747685432434082"></MPoint><MPoint x="0.4861111044883728" y="11.747685432434082"></MPoint><MPoint x="0.4861111044883728" y="4.293981552124023"></MPoint><MPoint x="-6.31944465637207" y="4.293981552124023"></MPoint></MBracket><MTextBox id="o3" color="#000000" toption="NOROT" fontScale="10.0" halign="LEFT" valign="TOP" autoSize="false"><Field name="text"><![CDATA[{D font=SansSerif,size=10}{italic}n]]></Field><MPoint x="0.63194574912389" y="4.942129582166672"></MPoint><MPoint x="1.2736124157905593" y="4.942129582166672"></MPoint><MPoint x="1.2736124157905593" y="3.4449073599444517"></MPoint><MPoint x="0.63194574912389" y="3.4449073599444517"></MPoint></MTextBox></MDocument>
</cml>
-->
  <defs id="genericDefs" />
  <g>
    <defs id="171039453-defs1">
      <clipPath clipPathUnits="userSpaceOnUse" id="1710394126-clipPath1">
        <path d="M-203.86309814453125 -220.67724609375 L221.13690185546875 -220.67724609375 L221.13690185546875 174.32275390625 L-203.86309814453125 174.32275390625 L-203.86309814453125 -220.67724609375 Z" />
      </clipPath>
      <clipPath clipPathUnits="userSpaceOnUse" id="1710394514-clipPath1">
        <path d="M0 0 L425 0 L425 395 L0 395 L0 0 Z" />
      </clipPath>
      <clipPath clipPathUnits="userSpaceOnUse" id="1710394155-clipPath1">
        <path d="M-277.53045654296875 -235.02902221679688 L147.4695281982422 -235.02902221679688 L147.4695281982422 159.97097778320312 L-277.53045654296875 159.97097778320312 L-277.53045654296875 -235.02902221679688 Z" />
      </clipPath>
      <clipPath clipPathUnits="userSpaceOnUse" id="1710394378-clipPath1">
        <path d="M224.21368408203125 227.75341796875 C230.2677764892578 227.75341796875 235.17559814453125 232.66123962402344 235.17559814453125 238.71533203125 L235.17559814453125 260.63916015625 C235.17559814453125 266.6932678222656 230.2677764892578 271.60107421875 224.21368408203125 271.60107421875 L218.51251220703125 271.60107421875 C212.4584197998047 271.60107421875 207.55059814453125 266.6932678222656 207.55059814453125 260.63916015625 L207.55059814453125 238.71533203125 C207.55059814453125 232.66123962402344 212.4584197998047 227.75341796875 218.51251220703125 227.75341796875 ZM308.69744873046875 241.65988159179688 C314.9565124511719 241.65988159179688 320.03045654296875 246.7338409423828 320.03045654296875 252.99288940429688 L320.03045654296875 275.6589050292969 C320.03045654296875 281.91796875 314.9565124511719 286.9919128417969 308.69744873046875 286.9919128417969 L291.36346435546875 286.9919128417969 C285.10443115234375 286.9919128417969 280.03045654296875 281.91796875 280.03045654296875 275.6589050292969 L280.03045654296875 252.99288940429688 C280.03045654296875 246.7338409423828 285.10443115234375 241.65988159179688 291.36346435546875 241.65988159179688 ZM0 0 L0 395 L425 395 L425 0 Z" />
      </clipPath>
      <clipPath clipPathUnits="userSpaceOnUse" id="1710394657-clipPath1">
        <path d="M374.1606750488281 319.9725341796875 L380.4299621582031 319.9725341796875 L380.4299621582031 334.53350830078125 L374.1606750488281 334.53350830078125 L374.1606750488281 319.9725341796875 Z" />
      </clipPath>
    </defs>
    <g text-rendering="optimizeLegibility" font-size="49" shape-rendering="geometricPrecision" font-family="&apos;Arial&apos;" transform="translate(203.86309959123108,220.677251670533)">
      <text xml:space="preserve" x="0" y="48" clip-path="url(#1710394126-clipPath1)" stroke="none">N
      </text>
    </g>
    <g text-rendering="optimizeLegibility" font-size="49" shape-rendering="geometricPrecision" font-family="&apos;Arial&apos;">
      <path d="M229.5989990234375 205.34713745117188 L229.5989990234375 212.94679260253906 L221.99932861328125 212.94679260253906 L221.99932861328125 215.4800262451172 L229.5989990234375 215.4800262451172 L229.5989990234375 223.07968139648438 L232.13221740722656 223.07968139648438 L232.13221740722656 215.4800262451172 L239.73187255859375 215.4800262451172 L239.73187255859375 212.94679260253906 L232.13221740722656 212.94679260253906 L232.13221740722656 205.34713745117188 ZM244.79830932617188 200.2807159423828 L244.79830932617188 228.14610290527344 L216.9329071044922 228.14610290527344 L216.9329071044922 200.2807159423828 ZM216.93287658691406 200.2806854248047 L216.93287658691406 200.28070068359375 L216.93287658691406 228.1461181640625 L216.93287658691406 228.14613342285156 L244.79833984375 228.14613342285156 L244.79833984375 228.1461181640625 L244.79833984375 200.28070068359375 L244.79833984375 200.2806854248047 Z" clip-path="url(#1710394514-clipPath1)" stroke="none" />
      <text x="0" y="48" transform="translate(277.53046489463,235.02902771116754)" clip-path="url(#1710394155-clipPath1)" stroke="none" xml:space="preserve">Cl
      </text>
    </g>
    <g text-rendering="optimizeLegibility" font-size="49" shape-rendering="geometricPrecision" font-family="&apos;Arial&apos;">
      <path d="M322.5294189453125 244.95057678222656 L322.5294189453125 247.48379516601562 L340.261962890625 247.48379516601562 L340.261962890625 244.95057678222656 ZM345.3283996582031 232.28448486328125 L345.3283996582031 260.1498718261719 L317.4629821777344 260.1498718261719 L317.4629821777344 232.28448486328125 ZM317.46295166015625 232.28445434570312 L317.46295166015625 232.2844696044922 L317.46295166015625 260.14990234375 L317.46295166015625 260.14990234375 L345.32843017578125 260.14990234375 L345.32843017578125 260.14990234375 L345.32843017578125 232.2844696044922 L345.32843017578125 232.28445434570312 Z" clip-path="url(#1710394514-clipPath1)" stroke="none" />
    </g>
    <g text-rendering="optimizeLegibility" font-size="49" shape-rendering="geometricPrecision" font-family="&apos;Arial&apos;">
      <path d="M184.3375701904297 139.6443634033203 L162.33580017089844 207.36390686035156 C162.08004760742188 208.15110778808594 162.51068115234375 208.9962158203125 163.29788208007812 209.25198364257812 C164.0850830078125 209.5077362060547 164.93019104003906 209.0771026611328 165.1859588623047 208.28990173339844 L187.18772888183594 140.57037353515625 C187.4434814453125 139.7831573486328 187.01284790039062 138.93804931640625 186.22564697265625 138.6822967529297 C185.43844604492188 138.42652893066406 184.5933380126953 138.85716247558594 184.3375701904297 139.6443634033203 Z" clip-path="url(#1710394378-clipPath1)" stroke="none" />
    </g>
    <g text-rendering="optimizeLegibility" font-size="49" shape-rendering="geometricPrecision" font-family="&apos;Arial&apos;">
      <path d="M185.7626190185547 141.60577392578125 L256.9666442871094 141.60733032226562 C257.79437255859375 141.6073455810547 258.4650573730469 140.93667602539062 258.465087890625 140.1089630126953 C258.465087890625 139.28125 257.79443359375 138.6105499267578 256.9667053222656 138.6105194091797 L185.76268005371094 138.6089630126953 C184.9349822998047 138.60894775390625 184.26426696777344 139.27963256835938 184.26425170898438 140.10733032226562 C184.2642364501953 140.93504333496094 184.93490600585938 141.60574340820312 185.7626190185547 141.60577392578125 Z" clip-path="url(#1710394378-clipPath1)" stroke="none" />
    </g>
    <g text-rendering="optimizeLegibility" font-size="49" shape-rendering="geometricPrecision" font-family="&apos;Arial&apos;">
      <path d="M162.88014221191406 209.0391387939453 L201.23487854003906 236.90541076660156 C201.90451049804688 237.3919219970703 202.84133911132812 237.24354553222656 203.32785034179688 236.57391357421875 C203.81436157226562 235.90428161621094 203.66598510742188 234.9674530029297 202.99635314941406 234.48094177246094 L164.64161682128906 206.6146697998047 C163.97198486328125 206.12815856933594 163.03515625 206.2765350341797 162.54864501953125 206.9461669921875 C162.0621337890625 207.6157989501953 162.21051025390625 208.55262756347656 162.88014221191406 209.0391387939453 Z" clip-path="url(#1710394378-clipPath1)" stroke="none" />
    </g>
    <g text-rendering="optimizeLegibility" font-size="49" shape-rendering="geometricPrecision" font-family="&apos;Arial&apos;">
      <path d="M241.49130249023438 236.90538024902344 L279.8493957519531 209.03659057617188 C280.51904296875 208.55007934570312 280.66741943359375 207.61325073242188 280.180908203125 206.94361877441406 C279.6943664550781 206.27398681640625 278.757568359375 206.1256103515625 278.0879211425781 206.61212158203125 L239.72982788085938 234.4809112548828 C239.06019592285156 234.96743774414062 238.9118194580078 235.9042510986328 239.39833068847656 236.57388305664062 C239.8848419189453 237.24351501464844 240.82167053222656 237.3918914794922 241.49130249023438 236.90538024902344 Z" clip-path="url(#1710394378-clipPath1)" stroke="none" />
    </g>
    <g text-rendering="optimizeLegibility" font-size="49" shape-rendering="geometricPrecision" font-family="&apos;Arial&apos;">
      <path d="M280.39373779296875 207.361328125 L258.3917541503906 139.64590454101562 C258.135986328125 138.85870361328125 257.2908630371094 138.4281005859375 256.503662109375 138.68386840820312 C255.71646118164062 138.93963623046875 255.2858428955078 139.78475952148438 255.54161071777344 140.57196044921875 L277.5436096191406 208.28738403320312 C277.79937744140625 209.0745849609375 278.6445007324219 209.5052032470703 279.43170166015625 209.24942016601562 C280.2189025878906 208.99365234375 280.6495056152344 208.14852905273438 280.39373779296875 207.361328125 Z" clip-path="url(#1710394378-clipPath1)" stroke="none" />
    </g>
    <g text-rendering="optimizeLegibility" font-size="49" shape-rendering="geometricPrecision" font-family="&apos;Arial&apos;">
      <path d="M258.17889404296875 140.98968505859375 L300.0322570800781 83.38489532470703 C300.5187683105469 82.71527099609375 300.3703918457031 81.7784423828125 299.7007751464844 81.29192352294922 C299.0311584472656 80.8053970336914 298.0943298339844 80.95376586914062 297.6078186035156 81.6233901977539 L255.75445556640625 139.22817993164062 C255.2679443359375 139.89779663085938 255.4163055419922 140.83462524414062 256.0859375 141.32115173339844 C256.75555419921875 141.80767822265625 257.6923828125 141.6593017578125 258.17889404296875 140.98968505859375 Z" clip-path="url(#1710394378-clipPath1)" stroke="none" />
    </g>
    <g text-rendering="optimizeLegibility" font-size="49" shape-rendering="geometricPrecision" font-family="&apos;Arial&apos;">
      <path d="M186.97488403320312 139.22662353515625 L145.12220764160156 81.62135314941406 C144.6356964111328 80.95172882080078 143.69886779785156 80.80335235595703 143.02923583984375 81.28986358642578 C142.35960388183594 81.77638244628906 142.2112274169922 82.71320343017578 142.69773864746094 83.3828353881836 L184.5504150390625 140.98809814453125 C185.0369415283203 141.65773010253906 185.9737548828125 141.8061065673828 186.6433868408203 141.31959533691406 C187.31301879882812 140.8330841064453 187.46139526367188 139.89625549316406 186.97488403320312 139.22662353515625 Z" clip-path="url(#1710394378-clipPath1)" stroke="none" />
    </g>
    <g text-rendering="optimizeLegibility" font-size="49" shape-rendering="geometricPrecision" font-family="&apos;Arial&apos;">
      <path d="M203.7725372314453 269.018798828125 L175.3884735107422 304.0701904296875 C174.86758422851562 304.71343994140625 174.9667205810547 305.6567687988281 175.60997009277344 306.1776428222656 C176.2532196044922 306.69854736328125 177.196533203125 306.5993957519531 177.71742248535156 305.9561462402344 L206.1014862060547 270.9047546386719 C206.62237548828125 270.2615051269531 206.52322387695312 269.3182067871094 205.87997436523438 268.79730224609375 C205.23672485351562 268.27642822265625 204.29342651367188 268.37554931640625 203.7725372314453 269.018798828125 Z" clip-path="url(#1710394378-clipPath1)" stroke="none" />
    </g>
    <g text-rendering="optimizeLegibility" font-size="49" shape-rendering="geometricPrecision" font-family="&apos;Arial&apos;">
      <path d="M236.6247100830078 270.9047546386719 L265.0087585449219 305.9561462402344 C265.5296630859375 306.5993957519531 266.47296142578125 306.69854736328125 267.1162109375 306.1776428222656 C267.75946044921875 305.6567687988281 267.8586120605469 304.71343994140625 267.3377380371094 304.0701904296875 L238.95367431640625 269.018798828125 C238.43276977539062 268.37554931640625 237.48947143554688 268.27642822265625 236.84622192382812 268.79730224609375 C236.20297241210938 269.3182067871094 236.10382080078125 270.2615051269531 236.6247100830078 270.9047546386719 Z" clip-path="url(#1710394378-clipPath1)" stroke="none" />
    </g>
    <g text-rendering="optimizeLegibility" font-size="49" shape-rendering="geometricPrecision" font-family="&apos;Arial&apos;">
      <path d="M133.42115783691406 81.00370025634766 L131.92276000976562 81.00370025634766 C131.0950469970703 81.00370025634766 130.4243621826172 81.67439270019531 130.4243621826172 82.5020980834961 C130.4243621826172 83.32980346679688 131.0950469970703 84.00049591064453 131.92276000976562 84.00049591064453 L133.42115783691406 84.00049591064453 C134.24887084960938 84.00049591064453 134.9195556640625 83.32980346679688 134.9195556640625 82.5020980834961 C134.9195556640625 81.67439270019531 134.24887084960938 81.00370025634766 133.42115783691406 81.00370025634766 ZM122.9323501586914 81.00370025634766 L121.43395233154297 81.00370025634766 C120.60624694824219 81.00370025634766 119.93555450439453 81.67439270019531 119.93555450439453 82.5020980834961 C119.93555450439453 83.32980346679688 120.60624694824219 84.00049591064453 121.43395233154297 84.00049591064453 L122.9323501586914 84.00049591064453 C123.76005554199219 84.00049591064453 124.43074798583984 83.32980346679688 124.43074798583984 82.5020980834961 C124.43074798583984 81.67439270019531 123.76005554199219 81.00370025634766 122.9323501586914 81.00370025634766 ZM112.44354248046875 81.00370025634766 L110.94514465332031 81.00370025634766 C110.11743927001953 81.00370025634766 109.44674682617188 81.67439270019531 109.44674682617188 82.5020980834961 C109.44674682617188 83.32980346679688 110.11743927001953 84.00049591064453 110.94514465332031 84.00049591064453 L112.44354248046875 84.00049591064453 C113.27124786376953 84.00049591064453 113.94194030761719 83.32980346679688 113.94194030761719 82.5020980834961 C113.94194030761719 81.67439270019531 113.27124786376953 81.00370025634766 112.44354248046875 81.00370025634766 ZM101.9547348022461 81.00370025634766 L100.45633697509766 81.00370025634766 C99.62863159179688 81.00370025634766 98.95793914794922 81.67439270019531 98.95793914794922 82.5020980834961 C98.95793914794922 83.32980346679688 99.62863159179688 84.00049591064453 100.45633697509766 84.00049591064453 L101.9547348022461 84.00049591064453 C102.78244018554688 84.00049591064453 103.45313262939453 83.32980346679688 103.45313262939453 82.5020980834961 C103.45313262939453 81.67439270019531 102.78244018554688 81.00370025634766 101.9547348022461 81.00370025634766 ZM91.46592712402344 81.00370025634766 L89.96752166748047 81.00370025634766 C89.13981628417969 81.00370025634766 88.46912384033203 81.67439270019531 88.46912384033203 82.5020980834961 C88.46912384033203 83.32980346679688 89.13981628417969 84.00049591064453 89.96752166748047 84.00049591064453 L91.46592712402344 84.00049591064453 C92.29363250732422 84.00049591064453 92.96432495117188 83.32980346679688 92.96432495117188 82.5020980834961 C92.96432495117188 81.67439270019531 92.29363250732422 81.00370025634766 91.46592712402344 81.00370025634766 ZM80.97711944580078 81.00370025634766 L79.47871398925781 81.00370025634766 C78.65100860595703 81.00370025634766 77.98031616210938 81.67439270019531 77.98031616210938 82.5020980834961 C77.98031616210938 83.32980346679688 78.65100860595703 84.00049591064453 79.47871398925781 84.00049591064453 L80.97711944580078 84.00049591064453 C81.80482482910156 84.00049591064453 82.47551727294922 83.32980346679688 82.47551727294922 82.5020980834961 C82.47551727294922 81.67439270019531 81.80482482910156 81.00370025634766 80.97711944580078 81.00370025634766 ZM70.4883041381836 81.00370025634766 L68.98990631103516 81.00370025634766 C68.16220092773438 81.00370025634766 67.49150848388672 81.67439270019531 67.49150848388672 82.5020980834961 C67.49150848388672 83.32980346679688 68.16220092773438 84.00049591064453 68.98990631103516 84.00049591064453 L70.4883041381836 84.00049591064453 C71.31600952148438 84.00049591064453 71.98670196533203 83.32980346679688 71.98670196533203 82.5020980834961 C71.98670196533203 81.67439270019531 71.31600952148438 81.00370025634766 70.4883041381836 81.00370025634766 ZM59.99949264526367 81.00370025634766 L58.50109100341797 81.00370025634766 C57.67338180541992 81.00370025634766 57.002689361572266 81.67439270019531 57.002689361572266 82.5020980834961 C57.002689361572266 83.32980346679688 57.67338180541992 84.00049591064453 58.50109100341797 84.00049591064453 L59.99949264526367 84.00049591064453 C60.82720184326172 84.00049591064453 61.497894287109375 83.32980346679688 61.497894287109375 82.5020980834961 C61.497894287109375 81.67439270019531 60.82720184326172 81.00370025634766 59.99949264526367 81.00370025634766 ZM49.51068115234375 81.00370025634766 L48.01228332519531 81.00370025634766 C47.184574127197266 81.00370025634766 46.51388168334961 81.67439270019531 46.51388168334961 82.5020980834961 C46.51388168334961 83.32980346679688 47.184574127197266 84.00049591064453 48.01228332519531 84.00049591064453 L49.51068115234375 84.00049591064453 C50.3383903503418 84.00049591064453 51.00908279418945 83.32980346679688 51.00908279418945 82.5020980834961 C51.00908279418945 81.67439270019531 50.3383903503418 81.00370025634766 49.51068115234375 81.00370025634766 ZM39.021873474121094 81.00370025634766 L37.52347183227539 81.00370025634766 C36.695762634277344 81.00370025634766 36.02507019042969 81.67439270019531 36.02507019042969 82.5020980834961 C36.02507019042969 83.32980346679688 36.695762634277344 84.00049591064453 37.52347183227539 84.00049591064453 L39.021873474121094 84.00049591064453 C39.84958267211914 84.00049591064453 40.5202751159668 83.32980346679688 40.5202751159668 82.5020980834961 C40.5202751159668 81.67439270019531 39.84958267211914 81.00370025634766 39.021873474121094 81.00370025634766 ZM28.533061981201172 81.00370025634766 L27.03466033935547 81.00370025634766 C26.206951141357422 81.00370025634766 25.536258697509766 81.67439270019531 25.536258697509766 82.5020980834961 C25.536258697509766 83.32980346679688 26.206951141357422 84.00049591064453 27.03466033935547 84.00049591064453 L28.533061981201172 84.00049591064453 C29.36077117919922 84.00049591064453 30.031463623046875 83.32980346679688 30.031463623046875 82.5020980834961 C30.031463623046875 81.67439270019531 29.36077117919922 81.00370025634766 28.533061981201172 81.00370025634766 ZM18.04425048828125 81.00370025634766 L16.545848846435547 81.00370025634766 C15.718140602111816 81.00370025634766 15.047447204589844 81.67439270019531 15.047447204589844 82.5020980834961 C15.047447204589844 83.32980346679688 15.718140602111816 84.00049591064453 16.545848846435547 84.00049591064453 L18.04425048828125 84.00049591064453 C18.871959686279297 84.00049591064453 19.542652130126953 83.32980346679688 19.542652130126953 82.5020980834961 C19.542652130126953 81.67439270019531 18.871959686279297 81.00370025634766 18.04425048828125 81.00370025634766 ZM7.555438995361328 81.00370025634766 L6.057037830352783 81.00370025634766 C5.229329586029053 81.00370025634766 4.558636665344238 81.67439270019531 4.558636665344238 82.5020980834961 C4.558636665344238 83.32980346679688 5.229329586029053 84.00049591064453 6.057037830352783 84.00049591064453 L7.555438995361328 84.00049591064453 C8.383147239685059 84.00049591064453 9.053840637207031 83.32980346679688 9.053840637207031 82.5020980834961 C9.053840637207031 81.67439270019531 8.383147239685059 81.00370025634766 7.555438995361328 81.00370025634766 ZM143.90997314453125 81.00370025634766 L142.4115753173828 81.00370025634766 C141.5838623046875 81.00370025634766 140.91317749023438 81.67439270019531 140.91317749023438 82.5020980834961 C140.91317749023438 83.32980346679688 141.5838623046875 84.00049591064453 142.4115753173828 84.00049591064453 L143.90997314453125 84.00049591064453 C144.73768615722656 84.00049591064453 145.4083709716797 83.32980346679688 145.4083709716797 82.5020980834961 C145.4083709716797 81.67439270019531 144.73768615722656 81.00370025634766 143.90997314453125 81.00370025634766 Z" clip-path="url(#1710394378-clipPath1)" stroke="none" />
    </g>
    <g text-rendering="optimizeLegibility" font-size="49" shape-rendering="geometricPrecision" font-family="&apos;Arial&apos;">
      <path d="M309.308837890625 84.0025405883789 L310.8072509765625 84.0025405883789 C311.63494873046875 84.0025405883789 312.3056640625 83.33184814453125 312.3056640625 82.50414276123047 C312.3056640625 81.67643737792969 311.63494873046875 81.00574493408203 310.8072509765625 81.00574493408203 L309.308837890625 81.00574493408203 C308.48114013671875 81.00574493408203 307.8104248046875 81.67643737792969 307.8104248046875 82.50414276123047 C307.8104248046875 83.33184814453125 308.48114013671875 84.0025405883789 309.308837890625 84.0025405883789 ZM319.79766845703125 84.0025405883789 L321.2960510253906 84.0025405883789 C322.1237487792969 84.0025405883789 322.7944641113281 83.33184814453125 322.7944641113281 82.50414276123047 C322.7944641113281 81.67643737792969 322.1237487792969 81.00574493408203 321.2960510253906 81.00574493408203 L319.79766845703125 81.00574493408203 C318.969970703125 81.00574493408203 318.29925537109375 81.67643737792969 318.29925537109375 82.50414276123047 C318.29925537109375 83.33184814453125 318.969970703125 84.0025405883789 319.79766845703125 84.0025405883789 ZM330.2864685058594 84.0025405883789 L331.78485107421875 84.0025405883789 C332.612548828125 84.0025405883789 333.28326416015625 83.33184814453125 333.28326416015625 82.50414276123047 C333.28326416015625 81.67643737792969 332.612548828125 81.00574493408203 331.78485107421875 81.00574493408203 L330.2864685058594 81.00574493408203 C329.4587707519531 81.00574493408203 328.7880554199219 81.67643737792969 328.7880554199219 82.50414276123047 C328.7880554199219 83.33184814453125 329.4587707519531 84.0025405883789 330.2864685058594 84.0025405883789 ZM340.7752685546875 84.0025405883789 L342.273681640625 84.0025405883789 C343.10137939453125 84.0025405883789 343.7720947265625 83.33184814453125 343.7720947265625 82.50414276123047 C343.7720947265625 81.67643737792969 343.10137939453125 81.00574493408203 342.273681640625 81.00574493408203 L340.7752685546875 81.00574493408203 C339.94757080078125 81.00574493408203 339.27685546875 81.67643737792969 339.27685546875 82.50414276123047 C339.27685546875 83.33184814453125 339.94757080078125 84.0025405883789 340.7752685546875 84.0025405883789 ZM351.26409912109375 84.0025405883789 L352.7624816894531 84.0025405883789 C353.5901794433594 84.0025405883789 354.2608947753906 83.33184814453125 354.2608947753906 82.50414276123047 C354.2608947753906 81.67643737792969 353.5901794433594 81.00574493408203 352.7624816894531 81.00574493408203 L351.26409912109375 81.00574493408203 C350.4364013671875 81.00574493408203 349.76568603515625 81.67643737792969 349.76568603515625 82.50414276123047 C349.76568603515625 83.33184814453125 350.4364013671875 84.0025405883789 351.26409912109375 84.0025405883789 ZM361.7528991699219 84.0025405883789 L363.2513122558594 84.0025405883789 C364.0790100097656 84.0025405883789 364.7497253417969 83.33184814453125 364.7497253417969 82.50414276123047 C364.7497253417969 81.67643737792969 364.0790100097656 81.00574493408203 363.2513122558594 81.00574493408203 L361.7528991699219 81.00574493408203 C360.9252014160156 81.00574493408203 360.2544860839844 81.67643737792969 360.2544860839844 82.50414276123047 C360.2544860839844 83.33184814453125 360.9252014160156 84.0025405883789 361.7528991699219 84.0025405883789 ZM372.24169921875 84.0025405883789 L373.7401123046875 84.0025405883789 C374.56781005859375 84.0025405883789 375.238525390625 83.33184814453125 375.238525390625 82.50414276123047 C375.238525390625 81.67643737792969 374.56781005859375 81.00574493408203 373.7401123046875 81.00574493408203 L372.24169921875 81.00574493408203 C371.41400146484375 81.00574493408203 370.7432861328125 81.67643737792969 370.7432861328125 82.50414276123047 C370.7432861328125 83.33184814453125 371.41400146484375 84.0025405883789 372.24169921875 84.0025405883789 ZM382.73052978515625 84.0025405883789 L384.2289123535156 84.0025405883789 C385.0566101074219 84.0025405883789 385.7273254394531 83.33184814453125 385.7273254394531 82.50414276123047 C385.7273254394531 81.67643737792969 385.0566101074219 81.00574493408203 384.2289123535156 81.00574493408203 L382.73052978515625 81.00574493408203 C381.90283203125 81.00574493408203 381.23211669921875 81.67643737792969 381.23211669921875 82.50414276123047 C381.23211669921875 83.33184814453125 381.90283203125 84.0025405883789 382.73052978515625 84.0025405883789 ZM393.2193298339844 84.0025405883789 L394.7177429199219 84.0025405883789 C395.5454406738281 84.0025405883789 396.2161560058594 83.33184814453125 396.2161560058594 82.50414276123047 C396.2161560058594 81.67643737792969 395.5454406738281 81.00574493408203 394.7177429199219 81.00574493408203 L393.2193298339844 81.00574493408203 C392.3916320800781 81.00574493408203 391.7209167480469 81.67643737792969 391.7209167480469 82.50414276123047 C391.7209167480469 83.33184814453125 392.3916320800781 84.0025405883789 393.2193298339844 84.0025405883789 ZM403.7081604003906 84.0025405883789 L405.20654296875 84.0025405883789 C406.03424072265625 84.0025405883789 406.7049560546875 83.33184814453125 406.7049560546875 82.50414276123047 C406.7049560546875 81.67643737792969 406.03424072265625 81.00574493408203 405.20654296875 81.00574493408203 L403.7081604003906 81.00574493408203 C402.8804626464844 81.00574493408203 402.2097473144531 81.67643737792969 402.2097473144531 82.50414276123047 C402.2097473144531 83.33184814453125 402.8804626464844 84.0025405883789 403.7081604003906 84.0025405883789 ZM414.19696044921875 84.0025405883789 L415.69537353515625 84.0025405883789 C416.5230712890625 84.0025405883789 417.19378662109375 83.33184814453125 417.19378662109375 82.50414276123047 C417.19378662109375 81.67643737792969 416.5230712890625 81.00574493408203 415.69537353515625 81.00574493408203 L414.19696044921875 81.00574493408203 C413.3692626953125 81.00574493408203 412.69854736328125 81.67643737792969 412.69854736328125 82.50414276123047 C412.69854736328125 83.33184814453125 413.3692626953125 84.0025405883789 414.19696044921875 84.0025405883789 ZM298.8200378417969 84.0025405883789 L300.3184509277344 84.0025405883789 C301.1461486816406 84.0025405883789 301.8168640136719 83.33184814453125 301.8168640136719 82.50414276123047 C301.8168640136719 81.67643737792969 301.1461486816406 81.00574493408203 300.3184509277344 81.00574493408203 L298.8200378417969 81.00574493408203 C297.9923400878906 81.00574493408203 297.3216247558594 81.67643737792969 297.3216247558594 82.50414276123047 C297.3216247558594 83.33184814453125 297.9923400878906 84.0025405883789 298.8200378417969 84.0025405883789 Z" clip-path="url(#1710394378-clipPath1)" stroke="none" />
    </g>
    <g text-rendering="optimizeLegibility" stroke-width="2.8897738456726074" shape-rendering="geometricPrecision">
      <line clip-path="url(#1710394514-clipPath1)" fill="none" x1="52.79424263779862" x2="52.79424263779862" y1="5.5547876477509135" y2="350.1870930341562" />
      <line clip-path="url(#1710394514-clipPath1)" fill="none" x1="52.79424263779862" x2="67.03504851947758" y1="5.5547876477509135" y2="5.5547876477509135" />
      <line clip-path="url(#1710394514-clipPath1)" fill="none" x1="52.79424263779862" x2="67.03504851947758" y1="350.1870930341562" y2="350.1870930341562" />
      <line clip-path="url(#1710394514-clipPath1)" fill="none" x1="367.45852350583624" x2="367.45852350583624" y1="350.1870930341562" y2="5.5547876477509135" />
      <line clip-path="url(#1710394514-clipPath1)" fill="none" x1="367.45852350583624" x2="353.2177176241573" y1="350.1870930341562" y2="350.1870930341562" />
      <line clip-path="url(#1710394514-clipPath1)" fill="none" x1="367.45852350583624" x2="353.2177176241573" y1="5.5547876477509135" y2="5.5547876477509135" />
    </g>
    <g font-size="10" transform="matrix(4.944724264471861,0,0,4.944724264471861,-1476.1213027383917,-1263.1759458277256)" text-rendering="optimizeLegibility" font-family="sans-serif" shape-rendering="geometricPrecision" font-style="italic">
      <text xml:space="preserve" x="374.2013854980469" y="331.2190856933594" clip-path="url(#1710394657-clipPath1)" stroke="none">n
      </text>
    </g>
  </g>
</svg>
